<svg id="Layer_1" xmlns="http://www.w3.org/2000/svg" viewBox="0 0 500 300"><g><circle cx="135.677" cy="135.768" r="15.385" fill="#7d4dff" class="color1"></circle><polygon points="94.929 175.84 72.125 175.84 97.488 122.15 120.292 122.15 94.929 175.84" fill="#1e92ff" class="color2"></polygon><polygon points="144.863 175.84 122.059 175.84 99.255 148.995 122.059 148.995 144.863 175.84" fill="#fa5e00" class="color3"></polygon></g><g><path d="m170.122,137.553v22.526h9.003v6.359h-16.512v-28.886h7.509Z" fill="#333" class="color0"></path><path d="m181.118,151.995c0-2.146.396-4.144,1.188-5.995.792-1.852,1.89-3.467,3.294-4.847,1.404-1.379,3.084-2.458,5.038-3.237,1.954-.778,4.105-1.168,6.455-1.168,2.324,0,4.469.39,6.437,1.168,1.966.779,3.658,1.858,5.076,3.237,1.417,1.38,2.522,2.995,3.314,4.847.792,1.852,1.188,3.85,1.188,5.995s-.396,4.145-1.188,5.996c-.792,1.852-1.896,3.467-3.314,4.846-1.417,1.38-3.109,2.459-5.076,3.237-1.967.779-4.113,1.169-6.437,1.169-2.35,0-4.501-.39-6.455-1.169-1.954-.778-3.634-1.857-5.038-3.237-1.405-1.379-2.503-2.994-3.294-4.846-.792-1.852-1.188-3.851-1.188-5.996Zm7.854,0c0,1.149.217,2.21.651,3.18.434.972,1.021,1.814,1.762,2.529.74.715,1.603,1.271,2.586,1.666.983.396,2.024.594,3.122.594s2.139-.197,3.123-.594c.983-.396,1.852-.951,2.605-1.666.753-.715,1.347-1.558,1.781-2.529.434-.97.651-2.03.651-3.18s-.217-2.208-.651-3.18c-.435-.97-1.028-1.812-1.781-2.528-.753-.715-1.622-1.271-2.605-1.666-.983-.396-2.024-.594-3.123-.594s-2.139.197-3.122.594c-.983.396-1.846.951-2.586,1.666-.741.716-1.328,1.559-1.762,2.528-.435.972-.651,2.03-.651,3.18Z" fill="#333" class="color0"></path><path d="m241.877,166.438h-9.348l-7.164-11.11v11.11h-7.509v-28.886h11.685c1.609,0,3.014.236,4.214.708,1.2.474,2.19,1.118,2.969,1.936.779.817,1.366,1.762,1.762,2.835.396,1.072.594,2.222.594,3.447,0,2.197-.53,3.979-1.59,5.345-1.06,1.366-2.625,2.292-4.693,2.777l9.079,11.838Zm-16.512-15.976h1.417c1.481,0,2.618-.307,3.41-.919.792-.613,1.188-1.494,1.188-2.644s-.396-2.03-1.188-2.644c-.792-.613-1.929-.92-3.41-.92h-1.417v7.126Z" fill="#333" class="color0"></path><path d="m261.454,143.912h-8.927v4.827h8.43v6.359h-8.43v4.98h8.927v6.359h-16.435v-28.886h16.435v6.359Z" fill="#333" class="color0"></path><path d="m265.554,166.438l4.903-28.886h7.433l5.784,15.4,5.747-15.4h7.433l4.903,28.886h-7.471l-2.489-16.627-6.82,16.627h-2.988l-6.475-16.627-2.49,16.627h-7.47Z" fill="#333" class="color0"></path><path d="m314.016,137.553v22.526h9.003v6.359h-16.512v-28.886h7.509Z" fill="#333" class="color0"></path><path d="m325.012,151.995c0-2.146.395-4.144,1.188-5.995.791-1.852,1.889-3.467,3.294-4.847,1.404-1.379,3.084-2.458,5.038-3.237,1.953-.778,4.105-1.168,6.455-1.168,2.324,0,4.469.39,6.437,1.168,1.966.779,3.658,1.858,5.075,3.237,1.418,1.38,2.522,2.995,3.314,4.847.791,1.852,1.188,3.85,1.188,5.995s-.396,4.145-1.188,5.996c-.792,1.852-1.896,3.467-3.314,4.846-1.417,1.38-3.109,2.459-5.075,3.237-1.968.779-4.112,1.169-6.437,1.169-2.35,0-4.502-.39-6.455-1.169-1.954-.778-3.634-1.857-5.038-3.237-1.405-1.379-2.503-2.994-3.294-4.846-.793-1.852-1.188-3.851-1.188-5.996Zm7.854,0c0,1.149.217,2.21.65,3.18.435.972,1.021,1.814,1.763,2.529.74.715,1.603,1.271,2.586,1.666.983.396,2.024.594,3.122.594s2.139-.197,3.123-.594c.982-.396,1.852-.951,2.604-1.666s1.347-1.558,1.781-2.529c.435-.97.651-2.03.651-3.18s-.217-2.208-.651-3.18c-.435-.97-1.028-1.812-1.781-2.528-.753-.715-1.622-1.271-2.604-1.666-.984-.396-2.025-.594-3.123-.594s-2.139.197-3.122.594c-.983.396-1.846.951-2.586,1.666-.741.716-1.328,1.559-1.763,2.528-.434.972-.65,2.03-.65,3.18Z" fill="#333" class="color0"></path><path d="m375.811,150.271h14.902c0,1.532-.063,2.925-.191,4.176-.128,1.252-.383,2.414-.766,3.486-.537,1.507-1.265,2.842-2.184,4.003-.92,1.163-1.999,2.133-3.238,2.912-1.238.779-2.599,1.373-4.08,1.781-1.48.408-3.039.613-4.674.613-2.247,0-4.297-.371-6.148-1.111s-3.441-1.781-4.77-3.122-2.363-2.95-3.104-4.827-1.11-3.952-1.11-6.226c0-2.247.364-4.31,1.092-6.187.728-1.878,1.763-3.48,3.103-4.809,1.342-1.327,2.957-2.362,4.847-3.103,1.89-.741,3.997-1.111,6.321-1.111,3.014,0,5.656.651,7.93,1.954,2.273,1.302,4.074,3.32,5.402,6.053l-7.126,2.95c-.664-1.584-1.526-2.721-2.586-3.41s-2.267-1.034-3.62-1.034c-1.124,0-2.146.211-3.064.632-.92.422-1.705,1.022-2.356,1.801-.651.779-1.163,1.718-1.532,2.815-.371,1.099-.556,2.325-.556,3.679,0,1.226.159,2.362.479,3.409.318,1.048.797,1.954,1.436,2.72.639.767,1.431,1.36,2.375,1.781.945.422,2.043.633,3.295.633.74,0,1.456-.083,2.146-.249.689-.166,1.309-.435,1.857-.805s1.002-.849,1.359-1.437c.357-.587.601-1.303.729-2.146h-6.168v-5.823Z" fill="#333" class="color0"></path><path d="m394.162,151.995c0-2.146.395-4.144,1.188-5.995.791-1.852,1.889-3.467,3.294-4.847,1.404-1.379,3.084-2.458,5.038-3.237,1.953-.778,4.105-1.168,6.455-1.168,2.324,0,4.469.39,6.437,1.168,1.966.779,3.658,1.858,5.075,3.237,1.418,1.38,2.522,2.995,3.314,4.847.791,1.852,1.188,3.85,1.188,5.995s-.396,4.145-1.188,5.996c-.792,1.852-1.896,3.467-3.314,4.846-1.417,1.38-3.109,2.459-5.075,3.237-1.968.779-4.112,1.169-6.437,1.169-2.35,0-4.502-.39-6.455-1.169-1.954-.778-3.634-1.857-5.038-3.237-1.405-1.379-2.503-2.994-3.294-4.846-.793-1.852-1.188-3.851-1.188-5.996Zm7.854,0c0,1.149.217,2.21.65,3.18.435.972,1.021,1.814,1.763,2.529.74.715,1.603,1.271,2.586,1.666.983.396,2.024.594,3.122.594s2.139-.197,3.123-.594c.982-.396,1.852-.951,2.604-1.666s1.347-1.558,1.781-2.529c.435-.97.651-2.03.651-3.18s-.217-2.208-.651-3.18c-.435-.97-1.028-1.812-1.781-2.528-.753-.715-1.622-1.271-2.604-1.666-.984-.396-2.025-.594-3.123-.594s-2.139.197-3.122.594c-.983.396-1.846.951-2.586,1.666-.741.716-1.328,1.559-1.763,2.528-.434.972-.65,2.03-.65,3.18Z" fill="#333" class="color0"></path></g></svg>